<svg version="1.1" id="Layer_1" xmlns="http://www.w3.org/2000/svg" xmlns:xlink="http://www.w3.org/1999/xlink" x="0px" y="0px"
	 width="100%" viewBox="0 0 225 225" enable-background="new 0 0 225 225" xml:space="preserve">
<path fill="#FEFFFF" opacity="1.000000" stroke="none" 
	d="
M157.000000,226.000000 
	C104.666672,226.000000 52.833340,226.000000 1.000007,226.000000 
	C1.000005,151.000000 1.000005,76.000015 1.000002,1.000017 
	C75.999992,1.000011 150.999985,1.000011 225.999969,1.000006 
	C225.999985,75.999985 225.999985,150.999969 226.000000,225.999969 
	C203.166672,226.000000 180.333328,226.000000 157.000000,226.000000 
M151.166824,64.841949 
	C149.774323,64.886345 148.381821,64.930748 146.089462,64.765198 
	C142.396271,64.835091 138.703079,64.904976 134.091644,64.807022 
	C129.723923,64.862610 125.356216,64.918205 120.076073,64.763969 
	C115.053650,64.833908 110.031235,64.903847 104.342430,64.811554 
	C103.891670,64.865631 103.440918,64.919708 102.259384,64.765625 
	C101.509621,64.835091 100.759850,64.904564 99.161560,64.807213 
	C97.437386,64.862991 95.713211,64.918770 93.094292,64.764931 
	C89.732765,64.834686 86.371246,64.904449 82.215775,64.807007 
	C81.140060,64.862556 80.064346,64.918106 78.121086,64.765251 
	C75.749367,64.836723 73.377655,64.908203 70.340530,64.823631 
	C69.896446,64.896889 69.452362,64.970146 68.263657,65.326210 
	C67.591438,67.692963 68.081383,69.076042 70.947548,68.930389 
	C73.214951,68.815163 75.497772,69.003151 77.794769,69.712044 
	C77.859444,70.142136 77.924118,70.572235 77.782616,71.920212 
	C77.769485,83.038795 77.721092,94.157478 77.750954,105.275948 
	C77.804413,125.182632 77.904984,145.089188 77.820633,165.781219 
	C77.855217,166.847824 77.889793,167.914444 77.329826,169.444397 
	C74.374626,169.991455 71.419426,170.538513 68.073524,171.157883 
	C67.185562,173.739212 69.172607,173.975128 71.661804,173.968094 
	C93.112030,173.907410 114.562386,173.888489 136.927475,174.054092 
	C143.854462,174.054092 150.781464,174.054092 159.137497,174.054092 
	C159.137497,162.942825 159.082123,152.649826 159.178497,142.358231 
	C159.201080,139.945633 158.902115,138.346893 155.396332,139.039154 
	C155.238007,139.351593 155.079681,139.664047 154.998993,139.926636 
	C154.998993,139.926636 154.948166,139.849609 154.123734,139.804016 
	C150.426804,139.167267 150.332062,141.831818 149.848572,144.322220 
	C147.305359,157.422104 141.510849,167.634384 126.953857,170.008163 
	C126.953857,170.008163 126.822151,169.847672 125.922256,169.658859 
	C118.027840,169.670685 110.133430,169.682510 102.213257,169.302902 
	C102.213257,169.302902 102.001030,168.972992 102.070145,168.150726 
	C102.022820,166.775909 101.975494,165.401077 102.079330,163.095932 
	C102.028534,150.059067 101.977737,137.022202 102.019768,123.502464 
	C102.019768,123.502464 101.915031,123.022026 102.064705,122.297020 
	C102.078781,121.557373 102.092857,120.817719 102.963043,119.916862 
	C114.940926,120.193764 119.723572,123.354286 122.013191,132.620071 
	C122.528114,134.703873 122.788528,136.850555 123.008499,139.551926 
	C123.654312,140.057968 124.300117,140.564026 125.700020,141.216675 
	C126.461639,141.149826 127.223251,141.082962 128.564545,141.352982 
	C132.060913,142.021591 131.838638,139.654297 131.836121,137.396835 
	C131.822403,125.083290 131.636337,112.765167 131.925629,100.458412 
	C132.041229,95.540390 130.095306,94.610153 125.285561,95.778023 
	C124.845589,95.860397 124.405617,95.942772 123.473297,96.141136 
	C123.430946,96.449440 123.388596,96.757751 123.158707,97.870918 
	C121.972649,109.122513 118.575226,113.002945 107.324776,115.050438 
	C106.424759,115.267677 105.524734,115.484917 104.063095,115.600830 
	C103.492851,115.599007 102.922600,115.597191 102.205254,114.731056 
	C102.163803,99.521599 102.122353,84.312141 102.999100,68.964699 
	C109.620514,68.983978 116.245003,68.882034 122.862648,69.049942 
	C133.747528,69.326126 141.366241,74.411880 145.187622,84.779213 
	C145.872192,86.636459 146.035919,88.839241 147.164276,90.336884 
	C148.332428,91.887321 150.381805,92.773819 152.911911,94.067741 
	C153.976105,93.239586 155.958145,92.415558 155.961899,91.582642 
	C155.997665,83.630676 155.815536,75.670250 155.344040,67.733162 
	C155.286652,66.767151 153.155685,65.924324 151.166824,64.841949 
M147.793442,61.902489 
	C152.230225,61.802551 156.667023,61.702610 161.769623,61.649849 
	C162.436417,61.633209 163.103210,61.616570 164.424271,61.736591 
	C164.586319,61.145729 164.748352,60.554871 164.738586,59.137531 
	C156.261841,58.679520 147.787506,57.887814 139.307892,57.826561 
	C114.671524,57.648598 90.033005,57.748497 65.395416,57.790638 
	C63.340347,57.794151 60.205967,56.725616 61.196049,61.465195 
	C61.514816,61.502705 61.833588,61.540211 62.968658,61.650314 
	C64.608749,61.634850 66.248833,61.619385 68.799141,61.905861 
	C86.764030,61.936470 104.728989,62.005547 122.693787,61.977985 
	C129.497238,61.967548 136.300339,61.734238 143.859802,61.650414 
	C144.869553,61.634487 145.879288,61.618565 147.793442,61.902489 
M125.917953,41.946434 
	C122.622826,43.279079 122.506523,45.188683 125.763161,46.248672 
	C129.014282,47.306877 132.586060,47.379917 136.017258,47.884857 
	C136.195312,47.260292 136.373367,46.635727 136.551422,46.011158 
	C133.259857,44.669502 129.968292,43.327850 125.917953,41.946434 
z"/>
<path fill="#128198" opacity="1.000000" stroke="none" 
	d="
M126.853409,169.833939 
	C141.510849,167.634384 147.305359,157.422104 149.848572,144.322220 
	C150.332062,141.831818 150.426804,139.167267 154.603546,140.302750 
	C154.754639,150.376190 154.342026,159.949188 154.148438,169.526627 
	C154.090500,172.393265 152.917938,173.147202 150.239868,173.168732 
	C145.495941,173.206833 140.754929,173.607910 136.012695,173.857101 
	C114.562386,173.888489 93.112030,173.907410 71.661804,173.968094 
	C69.172607,173.975128 67.185562,173.739212 68.073524,171.157883 
	C71.419426,170.538513 74.374626,169.991455 77.906281,169.020782 
	C78.317108,167.396713 78.151482,166.196259 77.985863,164.995804 
	C77.904984,145.089188 77.804413,125.182632 77.750954,105.275948 
	C77.721092,94.157478 77.769485,83.038795 78.118179,71.306778 
	C78.227066,70.147720 78.000404,69.602097 77.773743,69.056488 
	C75.497772,69.003151 73.214951,68.815163 70.947548,68.930389 
	C68.081383,69.076042 67.591438,67.692963 68.787941,65.405594 
	C69.876793,65.316551 70.441368,65.148109 71.005936,64.979675 
	C73.377655,64.908203 75.749367,64.836723 78.761887,65.138451 
	C80.605034,65.332504 81.807381,65.153358 83.009720,64.974213 
	C86.371246,64.904449 89.732765,64.834686 93.783470,65.152100 
	C96.318459,65.350861 98.164276,65.162453 100.010086,64.974045 
	C100.759850,64.904564 101.509621,64.835091 102.768906,65.102585 
	C103.855225,65.284286 104.432022,65.129036 105.008812,64.973785 
	C110.031235,64.903847 115.053650,64.833908 120.818924,65.171234 
	C126.044479,65.377281 130.527176,65.176071 135.009888,64.974861 
	C138.703079,64.904976 142.396271,64.835091 146.776459,65.151894 
	C148.924210,65.681488 150.384964,65.824387 151.890472,66.435791 
	C151.972046,75.919785 152.008896,84.935249 152.045731,93.950722 
	C150.381805,92.773819 148.332428,91.887321 147.164276,90.336884 
	C146.035919,88.839241 145.872192,86.636459 145.187622,84.779213 
	C141.366241,74.411880 133.747528,69.326126 122.862648,69.049942 
	C116.245003,68.882034 109.620514,68.983978 102.271698,68.995407 
	C101.363792,69.014015 101.183296,69.001915 100.766998,68.741898 
	C99.706871,69.591164 98.178223,70.680046 98.165192,71.786766 
	C98.002968,85.563065 98.023094,99.342293 98.148254,113.119392 
	C98.156509,114.027634 99.398041,114.924683 100.452042,115.834503 
	C101.342896,115.759842 101.847626,115.677605 102.352356,115.595367 
	C102.922600,115.597191 103.492851,115.599007 104.700905,115.757294 
	C106.234467,115.660873 107.130211,115.407974 108.025963,115.155075 
	C118.575226,113.002945 121.972649,109.122513 123.429413,97.348740 
	C123.877548,96.588898 123.966057,96.321754 123.965645,96.025154 
	C124.405617,95.942772 124.845589,95.860397 125.979286,96.009750 
	C127.127678,97.740654 127.967232,99.237373 127.976845,100.739395 
	C128.062698,114.164436 128.002258,127.590416 127.984879,141.016113 
	C127.223251,141.082962 126.461639,141.149826 125.238068,140.875000 
	C124.239449,140.011658 123.702782,139.489975 123.166115,138.968292 
	C122.788528,136.850555 122.528114,134.703873 122.013191,132.620071 
	C119.723572,123.354286 114.940926,120.193764 102.105484,119.963928 
	C100.469337,121.011795 99.022659,122.005943 99.012619,123.014397 
	C98.867035,137.630157 98.851639,152.248718 99.057655,166.863037 
	C99.071167,167.821548 101.131020,168.751236 102.239014,169.694336 
	C110.133430,169.682510 118.027840,169.670685 126.458046,169.899902 
	C127.077156,170.208572 127.160484,170.276230 127.243820,170.343872 
	C127.113678,170.173889 126.983543,170.003906 126.853409,169.833939 
z"/>
<path fill="#007899" opacity="1.000000" stroke="none" 
	d="
M163.770004,61.599930 
	C163.103210,61.616570 162.436417,61.633209 161.082962,61.413147 
	C155.893875,61.318508 151.391464,61.460571 146.889038,61.602638 
	C145.879288,61.618565 144.869553,61.634487 143.124115,61.412491 
	C118.174904,61.122131 93.961372,61.065308 69.747803,61.041985 
	C69.128357,61.041389 68.508560,61.408367 67.888924,61.603920 
	C66.248833,61.619385 64.608749,61.634850 62.439766,61.438911 
	C61.662617,61.084660 61.397659,60.987236 61.116001,60.935230 
	C60.205967,56.725616 63.340347,57.794151 65.395416,57.790638 
	C90.033005,57.748497 114.671524,57.648598 139.307892,57.826561 
	C147.787506,57.887814 156.261841,58.679520 164.551270,59.615135 
	C164.165985,60.595139 163.968002,61.097534 163.770004,61.599930 
z"/>
<path fill="#7A9CA3" opacity="1.000000" stroke="none" 
	d="
M128.274719,141.184540 
	C128.002258,127.590416 128.062698,114.164436 127.976845,100.739395 
	C127.967232,99.237373 127.127678,97.740654 126.317543,96.034210 
	C130.095306,94.610153 132.041229,95.540390 131.925629,100.458412 
	C131.636337,112.765167 131.822403,125.083290 131.836121,137.396835 
	C131.838638,139.654297 132.060913,142.021591 128.274719,141.184540 
z"/>
<path fill="#6D929B" opacity="1.000000" stroke="none" 
	d="
M136.470093,173.955597 
	C140.754929,173.607910 145.495941,173.206833 150.239868,173.168732 
	C152.917938,173.147202 154.090500,172.393265 154.148438,169.526627 
	C154.342026,159.949188 154.754639,150.376190 155.015747,140.325546 
	C154.948166,139.849609 154.998993,139.926636 155.198547,139.893082 
	C155.691254,139.675339 155.878494,139.414948 155.959808,139.078354 
	C158.902115,138.346893 159.201080,139.945633 159.178497,142.358231 
	C159.082123,152.649826 159.137497,162.942825 159.137497,174.054092 
	C150.781464,174.054092 143.854462,174.054092 136.470093,173.955597 
z"/>
<path fill="#70939E" opacity="1.000000" stroke="none" 
	d="
M102.226135,169.498627 
	C101.131020,168.751236 99.071167,167.821548 99.057655,166.863037 
	C98.851639,152.248718 98.867035,137.630157 99.012619,123.014397 
	C99.022659,122.005943 100.469337,121.011795 101.677429,120.044533 
	C102.092857,120.817719 102.078781,121.557373 101.835526,122.747993 
	C101.713211,123.461090 101.820076,123.723221 101.926941,123.985344 
	C101.977737,137.022202 102.028534,150.059067 101.745728,163.796066 
	C101.608429,165.988464 101.804733,167.480728 102.001030,168.972992 
	C102.001030,168.972992 102.213257,169.302902 102.226135,169.498627 
z"/>
<path fill="#6F939B" opacity="1.000000" stroke="none" 
	d="
M152.478821,94.009232 
	C152.008896,84.935249 151.972046,75.919785 151.946106,66.203094 
	C151.957001,65.501884 151.985718,65.024406 151.985718,65.024406 
	C153.155685,65.924324 155.286652,66.767151 155.344040,67.733162 
	C155.815536,75.670250 155.997665,83.630676 155.961899,91.582642 
	C155.958145,92.415558 153.976105,93.239586 152.478821,94.009232 
z"/>
<path fill="#728C93" opacity="1.000000" stroke="none" 
	d="
M101.002800,68.989807 
	C101.183296,69.001915 101.363792,69.014015 101.812592,69.064407 
	C102.122353,84.312141 102.163803,99.521599 102.278809,115.163208 
	C101.847626,115.677605 101.342896,115.759842 100.429848,115.384125 
	C100.010155,101.369446 99.961945,87.812523 100.032532,74.256218 
	C100.041687,72.499107 100.664330,70.745201 101.002800,68.989807 
z"/>
<path fill="#6EADB7" opacity="1.000000" stroke="none" 
	d="
M68.344032,61.754890 
	C68.508560,61.408367 69.128357,61.041389 69.747803,61.041985 
	C93.961372,61.065308 118.174904,61.122131 142.746033,61.388542 
	C136.300339,61.734238 129.497238,61.967548 122.693787,61.977985 
	C104.728989,62.005547 86.764030,61.936470 68.344032,61.754890 
z"/>
<path fill="#147D99" opacity="1.000000" stroke="none" 
	d="
M126.297333,41.966316 
	C129.968292,43.327850 133.259857,44.669502 136.551422,46.011158 
	C136.373367,46.635727 136.195312,47.260292 136.017258,47.884857 
	C132.586060,47.379917 129.014282,47.306877 125.763161,46.248672 
	C122.506523,45.188683 122.622826,43.279079 126.297333,41.966316 
z"/>
<path fill="#00758D" opacity="1.000000" stroke="none" 
	d="
M134.550766,64.890945 
	C130.527176,65.176071 126.044479,65.377281 121.275139,65.276154 
	C125.356216,64.918205 129.723923,64.862610 134.550766,64.890945 
z"/>
<path fill="#6EADB7" opacity="1.000000" stroke="none" 
	d="
M147.341248,61.752563 
	C151.391464,61.460571 155.893875,61.318508 160.750061,61.389557 
	C156.667023,61.702610 152.230225,61.802551 147.341248,61.752563 
z"/>
<path fill="#00758D" opacity="1.000000" stroke="none" 
	d="
M99.585823,64.890625 
	C98.164276,65.162453 96.318459,65.350861 94.230843,65.256912 
	C95.713211,64.918770 97.437386,64.862991 99.585823,64.890625 
z"/>
<path fill="#00758D" opacity="1.000000" stroke="none" 
	d="
M151.576263,64.933182 
	C151.985718,65.024406 151.957001,65.501884 151.901367,65.734581 
	C150.384964,65.824387 148.924210,65.681488 147.226379,65.256866 
	C148.381821,64.930748 149.774323,64.886345 151.576263,64.933182 
z"/>
<path fill="#70868F" opacity="1.000000" stroke="none" 
	d="
M102.035583,168.561859 
	C101.804733,167.480728 101.608429,165.988464 101.670151,164.261230 
	C101.975494,165.401077 102.022820,166.775909 102.035583,168.561859 
z"/>
<path fill="#7A9CA3" opacity="1.000000" stroke="none" 
	d="
M123.087311,139.260101 
	C123.702782,139.489975 124.239449,140.011658 124.861023,140.801697 
	C124.300117,140.564026 123.654312,140.057968 123.087311,139.260101 
z"/>
<path fill="#00758D" opacity="1.000000" stroke="none" 
	d="
M82.612747,64.890610 
	C81.807381,65.153358 80.605034,65.332504 79.195663,65.242661 
	C80.064346,64.918106 81.140060,64.862556 82.612747,64.890610 
z"/>
<path fill="#00768D" opacity="1.000000" stroke="none" 
	d="
M77.903244,165.388519 
	C78.151482,166.196259 78.317108,167.396713 78.203552,168.789108 
	C77.889793,167.914444 77.855217,166.847824 77.903244,165.388519 
z"/>
<path fill="#56939F" opacity="1.000000" stroke="none" 
	d="
M107.675369,115.102753 
	C107.130211,115.407974 106.234467,115.660873 104.981720,115.807968 
	C105.524734,115.484917 106.424759,115.267677 107.675369,115.102753 
z"/>
<path fill="#00758D" opacity="1.000000" stroke="none" 
	d="
M70.673233,64.901657 
	C70.441368,65.148109 69.876793,65.316551 69.160248,65.264191 
	C69.452362,64.970146 69.896446,64.896889 70.673233,64.901657 
z"/>
<path fill="#00768D" opacity="1.000000" stroke="none" 
	d="
M77.784256,69.384262 
	C78.000404,69.602097 78.227066,70.147720 78.221268,70.847832 
	C77.924118,70.572235 77.859444,70.142136 77.784256,69.384262 
z"/>
<path fill="#6EADB7" opacity="1.000000" stroke="none" 
	d="
M164.097137,61.668262 
	C163.968002,61.097534 164.165985,60.595139 164.637177,60.028374 
	C164.748352,60.554871 164.586319,61.145729 164.097137,61.668262 
z"/>
<path fill="#00758D" opacity="1.000000" stroke="none" 
	d="
M104.675621,64.892670 
	C104.432022,65.129036 103.855225,65.284286 103.134293,65.206665 
	C103.440918,64.919708 103.891670,64.865631 104.675621,64.892670 
z"/>
<path fill="#7A9CA3" opacity="1.000000" stroke="none" 
	d="
M123.719467,96.083145 
	C123.966057,96.321754 123.877548,96.588898 123.523178,96.946312 
	C123.388596,96.757751 123.430946,96.449440 123.719467,96.083145 
z"/>
<path fill="#70868F" opacity="1.000000" stroke="none" 
	d="
M101.973358,123.743904 
	C101.820076,123.723221 101.713211,123.461090 101.760689,123.110497 
	C101.915031,123.022026 102.019768,123.502464 101.973358,123.743904 
z"/>
<path fill="#128198" opacity="1.000000" stroke="none" 
	d="
M155.678070,139.058746 
	C155.878494,139.414948 155.691254,139.675339 155.159729,139.917999 
	C155.079681,139.664047 155.238007,139.351593 155.678070,139.058746 
z"/>
<path fill="#6EADB7" opacity="1.000000" stroke="none" 
	d="
M61.156025,61.200211 
	C61.397659,60.987236 61.662617,61.084660 62.031616,61.402611 
	C61.833588,61.540211 61.514816,61.502705 61.156025,61.200211 
z"/>
<path fill="#56939F" opacity="1.000000" stroke="none" 
	d="
M100.766998,68.741898 
	C100.664330,70.745201 100.041687,72.499107 100.032532,74.256218 
	C99.961945,87.812523 100.010155,101.369446 100.043732,115.376556 
	C99.398041,114.924683 98.156509,114.027634 98.148254,113.119392 
	C98.023094,99.342293 98.002968,85.563065 98.165192,71.786766 
	C98.178223,70.680046 99.706871,69.591164 100.766998,68.741898 
z"/>
<path fill="#00758D" opacity="1.000000" stroke="none" 
	d="
M126.903633,169.921051 
	C126.983543,170.003906 127.113678,170.173889 127.243820,170.343872 
	C127.160484,170.276230 127.077156,170.208572 126.907990,169.994293 
	C126.822151,169.847672 126.953857,170.008163 126.903633,169.921051 
z"/>
</svg>